<svg id="Group_32" data-name="Group 32" xmlns="http://www.w3.org/2000/svg" xmlns:xlink="http://www.w3.org/1999/xlink" width="23.197" height="30" viewBox="0 0 23.197 30">
  <defs>
    <clipPath id="clip-path">
      <rect id="Rectangle_1241" data-name="Rectangle 1241" width="23.197" height="30" fill="#fff"/>
    </clipPath>
  </defs>
  <g id="Group_31" data-name="Group 31" clip-path="url(#clip-path)">
    <path id="Path_168" data-name="Path 168" d="M76.315,5.621l0-.013,0-.016h0c-.106-.517-1.015-.812-1.015-.812A3.008,3.008,0,0,0,71.7,5.953l0,0L69.833,9.177,69.7,9.4l-1.727,2.991-.7-.406,2.489-4.311.271-.469,1.721-2.982h0A3.017,3.017,0,0,0,70.942.508s-.721-.646-1.225-.481h0L69.7.032l-.012,0a3.126,3.126,0,0,0-.722.388,1.016,1.016,0,0,0-.2,1.32l2.3,2.317v0h0l0,0-1.62,2.806-.271.469-2.489,4.311-.733-.423.66-1.144.13-.225,1.862-3.226h0a3.017,3.017,0,0,0-.809-3.716s-.721-.646-1.225-.481h0l-.015.005-.012,0a3.133,3.133,0,0,0-.722.388,1.017,1.017,0,0,0-.2,1.32l2.3,2.317v0h0l0,0-.9,1.554A3.453,3.453,0,0,0,65.931,6.14s-.72-.646-1.225-.481h0l-.015.005-.012,0a3.136,3.136,0,0,0-.722.388,1.017,1.017,0,0,0-.2,1.32l2.3,2.318v0h0l0,0-.028.049-.66,1.144-1.425-.822-.576,1,5.706,3.295.576-1-1.092-.631,1.727-2.991.029-.049,0,0h0l0,0,3.123.812a1.02,1.02,0,0,0,1.038-.836,3.137,3.137,0,0,0-.02-.817s0-.008,0-.012l0-.016h0c-.106-.517-1.015-.812-1.015-.812a3.405,3.405,0,0,0-2.154.009l.9-1.554,0,0h0l0,0,3.123.813a1.02,1.02,0,0,0,1.038-.836,3.141,3.141,0,0,0-.02-.817" transform="translate(-53.156 0)" fill="#fff"/>
    <path id="Path_169" data-name="Path 169" d="M9.8,73.014l-.43.745a2.963,2.963,0,0,0-2.268.687,12.829,12.829,0,0,0-1.943.134l-.2.343c-1.539.255-3.442.889-4.388,2.445C-.21,78.663-.19,80.36.631,82.43l-.2.341a16.177,16.177,0,0,0,.791,1.615A3.7,3.7,0,0,0,1.51,87.38l-.341.591,5.677,3.277.51-.883A3.894,3.894,0,0,0,9.932,88.6a1.621,1.621,0,0,0,1.126-.788l3.556-6.159a1.625,1.625,0,0,0-.022-1.664,3.286,3.286,0,0,0,.24-2.506l.68-1.178ZM1.932,83.055a11.619,11.619,0,0,1-.689-1.684l-.209.362a4.678,4.678,0,0,1,.074-4.039,5.191,5.191,0,0,1,3.441-2.049l-.211.365a11.057,11.057,0,0,1,1.794-.281,3.289,3.289,0,0,0-.2,2.165c-.056.084-.11.169-.161.258L3.791,81.572c-.037.064-.072.128-.106.193a3.939,3.939,0,0,0-1.753,1.29m1.937,2.987-.754-.435,4.043-7,.753.435Z" transform="translate(0 -61.249)" fill="#fff"/>
  </g>
</svg>
