<svg id="Group_26" data-name="Group 26" xmlns="http://www.w3.org/2000/svg" xmlns:xlink="http://www.w3.org/1999/xlink" width="37.603" height="30" viewBox="0 0 37.603 30">
  <defs>
    <clipPath id="clip-path">
      <rect id="Rectangle_1238" data-name="Rectangle 1238" width="37.603" height="30" fill="#fff"/>
    </clipPath>
  </defs>
  <path id="Path_161" data-name="Path 161" d="M21.887,32.034h4.048V38.51h8.3V10.165H13.583V38.51h8.3Zm6.531-18.753h3.04v3.153h-3.04Zm0,6.251h3.04v3.153h-3.04Zm0,6.251h3.04v3.152h-3.04Zm0,6.251h3.04v3.153h-3.04ZM22.39,13.281h3.041v3.153H22.39Zm0,6.251h3.041v3.153H22.39Zm0,6.251h3.041v3.152H22.39Zm-2.987,9.4H16.362V32.033H19.4Zm0-6.251H16.362V25.783H19.4Zm0-6.25H16.362V19.533H19.4Zm0-6.251H16.362V13.281H19.4Z" transform="translate(-5.109 -10.165)" fill="#fff"/>
  <rect id="Rectangle_1237" data-name="Rectangle 1237" width="24.338" height="1.551" transform="translate(6.633 28.449)" fill="#fff"/>
  <g id="Group_25" data-name="Group 25">
    <g id="Group_24" data-name="Group 24" clip-path="url(#clip-path)">
      <path id="Path_162" data-name="Path 162" d="M54.346,42.72v-.006a2.08,2.08,0,0,0-4.094,0v.006a1.806,1.806,0,0,0-1.567,1.664A1.9,1.9,0,0,0,50.732,46.1a2.306,2.306,0,0,0,1.274-.373l-.467,3.871h1.525L52.6,45.723a2.3,2.3,0,0,0,1.273.373,1.9,1.9,0,0,0,2.046-1.713,1.806,1.806,0,0,0-1.569-1.664" transform="translate(-18.312 -19.594)" fill="#fff"/>
      <path id="Path_163" data-name="Path 163" d="M5.662,42.72v-.006A1.9,1.9,0,0,0,3.615,41a1.9,1.9,0,0,0-2.047,1.712v.006A1.807,1.807,0,0,0,0,44.383,1.9,1.9,0,0,0,2.046,46.1a2.307,2.307,0,0,0,1.273-.373l-.467,3.871H4.378l-.466-3.871a2.291,2.291,0,0,0,1.271.373A1.9,1.9,0,0,0,7.23,44.383,1.807,1.807,0,0,0,5.662,42.72" transform="translate(0 -19.594)" fill="#fff"/>
    </g>
  </g>
</svg>
