<svg
                    xmlns="http://www.w3.org/2000/svg"
                    width="38.579"
                    height="30"
                    viewBox="0 0 38.579 30"
                  >
                    <path
                      id="Icon_awesome-home"
                      data-name="Icon awesome-home"
                      d="M18.777,10.036,6.429,20.206V31.182A1.072,1.072,0,0,0,7.5,32.254l7.5-.019a1.072,1.072,0,0,0,1.066-1.072v-6.41a1.072,1.072,0,0,1,1.072-1.072H21.43A1.072,1.072,0,0,1,22.5,24.753v6.405a1.072,1.072,0,0,0,1.072,1.075l7.5.021a1.072,1.072,0,0,0,1.072-1.072V20.2L19.8,10.036A.816.816,0,0,0,18.777,10.036Zm19.5,6.912-5.6-4.615V3.057a.8.8,0,0,0-.8-.8h-3.75a.8.8,0,0,0-.8.8V7.92l-6-4.933a3.215,3.215,0,0,0-4.085,0L.291,16.948A.8.8,0,0,0,.183,18.08l1.708,2.076a.8.8,0,0,0,1.132.109L18.777,7.29a.816.816,0,0,1,1.025,0L35.555,20.266a.8.8,0,0,0,1.132-.107l1.708-2.076a.8.8,0,0,0-.114-1.134Z"
                      transform="translate(0.001 -2.254)"
                      fill="#fff"
                    />
                  </svg>