<svg
                    xmlns="http://www.w3.org/2000/svg"
                    xmlns:xlink="http://www.w3.org/1999/xlink"
                    width="30.478"
                    height="30"
                    viewBox="0 0 30.478 30"
                  >
                    <defs>
                      <clipPath id="clip-path">
                        <rect
                          id="Rectangle_1236"
                          data-name="Rectangle 1236"
                          width="30.478"
                          height="30"
                          fill="#fff"
                        />
                      </clipPath>
                    </defs>
                    <g
                      id="Group_23"
                      data-name="Group 23"
                      transform="translate(0 0)"
                    >
                      <g
                        id="Group_22"
                        data-name="Group 22"
                        transform="translate(0 0)"
                        clip-path="url(#clip-path)"
                      >
                        <path
                          id="Path_145"
                          data-name="Path 145"
                          d="M6.824,25.361a1.865,1.865,0,0,0-1.942,1.781H8.764a1.864,1.864,0,0,0-1.941-1.781m-.93,1.527H5.181A1.622,1.622,0,0,1,6.76,25.616a1.994,1.994,0,0,0-.866,1.272"
                          transform="translate(-2.19 -12.531)"
                          fill="#fff"
                        />
                        <path
                          id="Path_146"
                          data-name="Path 146"
                          d="M8.477,29.536a.426.426,0,0,0-.393-.243H4.323a.424.424,0,0,0-.391.243.468.468,0,0,0-.431.449v.2H8.907v-.2a.469.469,0,0,0-.43-.449"
                          transform="translate(-1.57 -14.474)"
                          fill="#fff"
                        />
                        <path
                          id="Path_147"
                          data-name="Path 147"
                          d="M7.7,24.585h.551a.23.23,0,1,0,0-.458H7.7a.23.23,0,1,0,0,.458"
                          transform="translate(-3.343 -11.921)"
                          fill="#fff"
                        />
                        <path
                          id="Path_148"
                          data-name="Path 148"
                          d="M35.687,19.752l-6.013-1.757-1.562,1.534-1.564-1.534-6.008,1.757L19.48,24.608H36.742ZM22.135,23.716H20.666l.707-3.253.762-.419Zm4.424,0-1.392-4.444,1.152-.293,1.793,1.708,1.794-1.708,1.149.293-1.391,4.444ZM33.2,23.23H30.818V22.6l1.192-.2,1.194.2Zm.885.486V20.044l.76.419.709,3.253Z"
                          transform="translate(-8.738 -8.891)"
                          fill="#fff"
                        />
                        <path
                          id="Path_149"
                          data-name="Path 149"
                          d="M34.558,24.884a.651.651,0,1,0,.707.649.679.679,0,0,0-.707-.649"
                          transform="translate(-15.184 -12.295)"
                          fill="#fff"
                        />
                        <path
                          id="Path_150"
                          data-name="Path 150"
                          d="M31.632,8.7A4.359,4.359,0,0,0,34.195.853,4.272,4.272,0,0,0,32.081.023,4.149,4.149,0,0,0,31.632,0a4.321,4.321,0,0,0-4.276,3.847,4.4,4.4,0,0,0-.029.5,4.327,4.327,0,0,0,4.3,4.349M28.246,3.958a7.17,7.17,0,0,0,2.7-.441,6.9,6.9,0,0,0,2.043-1.138,2.936,2.936,0,0,0,1.934,1.074,3.649,3.649,0,0,1,.113.894,3.41,3.41,0,1,1-6.815,0,3.532,3.532,0,0,1,.023-.389"
                          transform="translate(-12.258 0)"
                          fill="#fff"
                        />
                        <path
                          id="Path_151"
                          data-name="Path 151"
                          d="M29.468,34.324H1.009a.931.931,0,1,1,0-1.856H29.468a.931.931,0,1,1,0,1.856"
                          transform="translate(0 -16.043)"
                          fill="#fff"
                        />
                        <path
                          id="Path_152"
                          data-name="Path 152"
                          d="M39.275,46.446c-.47,0-.744.406-.744.949s.282.939.744.939.733-.405.733-.951c0-.505-.259-.937-.733-.937"
                          transform="translate(-17.283 -22.949)"
                          fill="#fff"
                        />
                        <path
                          id="Path_153"
                          data-name="Path 153"
                          d="M27.377,46.46a1.38,1.38,0,0,0-.279.021v.826a1.033,1.033,0,0,0,.23.017c.367,0,.592-.17.592-.453,0-.256-.194-.411-.543-.411"
                          transform="translate(-12.155 -22.956)"
                          fill="#fff"
                        />
                        <path
                          id="Path_154"
                          data-name="Path 154"
                          d="M8.891,46.446a1.51,1.51,0,0,0-.314.02v.769h.274c.343,0,.546-.157.546-.4s-.191-.385-.506-.385"
                          transform="translate(-3.847 -22.949)"
                          fill="#fff"
                        />
                        <path
                          id="Path_155"
                          data-name="Path 155"
                          d="M1.829,48.442H30.288V37.324H1.829Zm4.637-4.158a3.2,3.2,0,0,1-.207-.652c-.087-.353-.218-.445-.5-.449h-.2v1.1H4.868V41.522a6.589,6.589,0,0,1,.92-.058,1.662,1.662,0,0,1,.986.221.683.683,0,0,1,.283.59.749.749,0,0,1-.538.684v.013a.712.712,0,0,1,.408.519c.095.32.187.684.243.793Zm3.032,0H7.556v-2.8H9.434V42H8.242v.581H9.366V43.1H8.242v.665H9.5Zm2.028-.48a1.764,1.764,0,0,0,.58-.093l.1.5a2.179,2.179,0,0,1-.779.12,1.4,1.4,0,0,1-1.6-1.4A1.5,1.5,0,0,1,11.5,41.445a1.84,1.84,0,0,1,.751.124l-.144.5a1.6,1.6,0,0,0-.581-.1.923.923,0,1,0,0,1.843m3.082.48H12.666v-2.8h1.88V42H13.355v.581h1.123V43.1H13.355v.665h1.253ZM16.99,43a1.518,1.518,0,0,1-.99.292,1.376,1.376,0,0,1-.236-.015v1h-.683V41.522a6.2,6.2,0,0,1,.932-.058,1.561,1.561,0,0,1,.931.225.773.773,0,0,1,.326.647A.835.835,0,0,1,16.99,43m2.834-.986h-.832v2.268H18.3V42.016h-.826v-.531h2.346Zm1.059,2.268H20.2v-2.8h.688Zm1.892.046A1.362,1.362,0,0,1,21.338,42.9a1.415,1.415,0,0,1,1.486-1.468,1.358,1.358,0,0,1,1.449,1.421,1.386,1.386,0,0,1-1.5,1.474m4.477-.046h-.724L25.876,43.2a8.845,8.845,0,0,1-.529-.988h-.019c.023.374.032.769.032,1.227v.842h-.635v-2.8h.806l.636,1.026a8.989,8.989,0,0,1,.5.959h.008A10.6,10.6,0,0,1,26.62,42.3v-.814h.633Z"
                          transform="translate(-0.82 -18.442)"
                          fill="#fff"
                        />
                      </g>
                    </g>
                  </svg>