  <svg
                    id="Group_21"
                    data-name="Group 21"
                    xmlns="http://www.w3.org/2000/svg"
                    xmlns:xlink="http://www.w3.org/1999/xlink"
                    width="34.068"
                    height="30"
                    viewBox="0 0 34.068 30"
                  >
                    <defs>
                      <clipPath id="clip-path">
                        <rect
                          id="Rectangle_1235"
                          data-name="Rectangle 1235"
                          width="34.068"
                          height="30"
                          fill="#fff"
                        />
                      </clipPath>
                    </defs>
                    <g
                      id="Group_20"
                      data-name="Group 20"
                      clip-path="url(#clip-path)"
                    >
                      <path
                        id="Path_82"
                        data-name="Path 82"
                        d="M.363,111.106H.388a.387.387,0,0,0,.386-.363,18.449,18.449,0,0,1,2.994-9.633,5.838,5.838,0,0,0-.063.673,13.721,13.721,0,0,0,.329,2.9c0,.012-.007.024-.01.036-.076.31-1.857,7.613-2.042,9.877a.71.71,0,0,0,.708.768H5.784a.71.71,0,0,0,.639-1.021l-.258-.532a.71.71,0,0,0-.3-.315l-.975-.524,0-.009,1.136-2.983a8.728,8.728,0,0,1,2.714-1.064,23.1,23.1,0,0,1,1.169,5.68.71.71,0,0,0,.708.768H13.71a.71.71,0,0,0,.639-1.021l-.258-.532a.71.71,0,0,0-.3-.315l-1.136-.61-.785-3.835c0-.012-.005-.024-.008-.036a2.621,2.621,0,0,1-.068-.474q.508-.021,1.037-.021a19.844,19.844,0,0,0,3.08-.254L16.2,113.8l-.258.517a.71.71,0,0,0,.635,1.028h2.575a.71.71,0,0,0,.639-1.02l-.137-.282a.71.71,0,0,0-.519-.39l-.7-.12,1.106-6a5.868,5.868,0,0,1,.849-.111l.1,0,2.111,6.472-.212.424a.71.71,0,0,0,.635,1.028h2.229a.71.71,0,0,0,.639-1.02l-.137-.282a.711.711,0,0,0-.482-.383l-.583-.132-.99-7.62a3.3,3.3,0,0,0,.15-.806,4.877,4.877,0,0,0,.864-.107,8.178,8.178,0,0,0,1.682.454,4.7,4.7,0,0,0,1.091,1.207,5.721,5.721,0,0,0,1.911.968c.055.238.1.476.14.712.029.189.053.377.067.562.006.092.012.184.014.273a1.209,1.209,0,0,1-.007.162c0,.059-.007.117-.009.175a8.926,8.926,0,0,0,.053,1.377,8.606,8.606,0,0,0,.262,1.354,6.225,6.225,0,0,0,.23.674,4.24,4.24,0,0,0,.345.674,2.462,2.462,0,0,0,.586.651,1.672,1.672,0,0,0,.47.248,1.5,1.5,0,0,0,.567.073.667.667,0,0,0,.026-1.329l-.1-.01a.145.145,0,0,1-.054-.014.361.361,0,0,1-.081-.053,1.16,1.16,0,0,1-.235-.3,3.767,3.767,0,0,1-.368-.984,7.531,7.531,0,0,1-.176-2.275l.013-.14c.005-.047.009-.087.02-.153.021-.12.037-.238.052-.357.027-.236.043-.469.052-.7,0-.1.005-.2.006-.306q.294.017.61.018a12.852,12.852,0,0,0,1.814-.136.576.576,0,0,0,.35-.14.148.148,0,0,0,.028-.115c-.032-.178-.309-.164-.387-.155a9.741,9.741,0,0,1-2.426-.161q-.008-.185-.02-.369c-.03-.449-.077-.893-.137-1.334q-.045-.331-.1-.662c-.014-.081-.028-.162-.043-.243a15.149,15.149,0,0,0-.74-4.688c-.422-1.163-1.838-2.075-2.219-2.69a2.991,2.991,0,0,0-2-1.345,11.4,11.4,0,0,0-1.552-.726c-5.295-1.977-7.268,2.788-5.254,6.764a5.179,5.179,0,0,0,3.586,3.054l-.036.211a4.578,4.578,0,0,1-.71-.166,5.59,5.59,0,0,1-3.221-3.023,6.331,6.331,0,0,1-.354-5.335,3.8,3.8,0,0,1,.772-1.119l-.14-.049c.037-.129.078-.258.123-.385s.092-.25.142-.373l-.724-2a.665.665,0,1,1,1.251-.452l.73,2.022.6.26q.164-.026.333-.04l-.419-.517-.786-2.254a.515.515,0,0,0-.1-.17A.714.714,0,0,0,20,91.411a1.478,1.478,0,0,0-1.912.615,7.019,7.019,0,0,0-1.1,2.287,10.508,10.508,0,0,0-.219,1.067,1.218,1.218,0,0,0,.577,1.282c.43.806.093,4.359.611,5.564.613,1.426-9.856,1.351-9.506.4.319-.866-.609-3.544-1.689-5.121q-.259.108-.5.232a.385.385,0,0,0-.161.043,9.267,9.267,0,0,0-2.85,2.715A19.029,19.029,0,0,0,0,110.7a.387.387,0,0,0,.362.411m33.433-3.5a.911.911,0,0,1-.133.027c-3.231.461-5.075-.355-6.052-1.121a4.171,4.171,0,0,1-1.351-1.757,1.123,1.123,0,0,1,.616-.512c.408-.179.6-.116.659-.085a3.553,3.553,0,0,0,.9,1.818c.741.824,2.255,1.776,5.263,1.632a.661.661,0,0,1,.1,0m-6.352-7.131a.517.517,0,1,1-.487.689q-.01-.112-.027-.227a.517.517,0,0,1,.514-.462"
                        transform="translate(0 -85.369)"
                        fill="#fff"
                      />
                      <path
                        id="Path_83"
                        data-name="Path 83"
                        d="M262.779,178.654l-.184.06c.008.025.016.054.024.085l.188-.044c-.009-.037-.018-.071-.028-.1"
                        transform="translate(-245.638 -167.118)"
                        fill="#fff"
                      />
                      <path
                        id="Path_84"
                        data-name="Path 84"
                        d="M264.366,189.335l-.193.017c.005.062.011.126.015.191l.193-.014c0-.067-.01-.132-.016-.195"
                        transform="translate(-247.114 -177.109)"
                        fill="#fff"
                      />
                      <path
                        id="Path_85"
                        data-name="Path 85"
                        d="M263.683,183.279l-.191.029c.009.058.017.121.025.188l.192-.022c-.008-.07-.016-.135-.026-.2"
                        transform="translate(-246.477 -171.444)"
                        fill="#fff"
                      />
                      <path
                        id="Path_86"
                        data-name="Path 86"
                        d="M265.11,201.573c0-.064-.005-.129-.008-.194l-.194.008c0,.065.005.129.008.193Z"
                        transform="translate(-247.803 -188.375)"
                        fill="#fff"
                      />
                      <path
                        id="Path_87"
                        data-name="Path 87"
                        d="M264.8,195.363l-.193.012c0,.063.007.128.011.192l.193-.01c0-.065-.007-.13-.011-.194"
                        transform="translate(-247.52 -182.748)"
                        fill="#fff"
                      />
                      <path
                        id="Path_88"
                        data-name="Path 88"
                        d="M266.193,231.539q-.006-.1-.011-.193l-.193.01q.005.1.011.194Z"
                        transform="translate(-248.813 -216.407)"
                        fill="#fff"
                      />
                      <path
                        id="Path_89"
                        data-name="Path 89"
                        d="M265.141,207.589l.194-.006-.006-.194-.194.007Z"
                        transform="translate(-248.014 -193.997)"
                        fill="#fff"
                      />
                      <path
                        id="Path_90"
                        data-name="Path 90"
                        d="M265.917,225.565q0-.1-.008-.193l-.194.007q0,.1.008.194Z"
                        transform="translate(-248.557 -210.819)"
                        fill="#fff"
                      />
                      <rect
                        id="Rectangle_1234"
                        data-name="Rectangle 1234"
                        width="0.194"
                        height="0.194"
                        transform="translate(17.133 13.785) rotate(-1.718)"
                        fill="#fff"
                      />
                      <path
                        id="Path_91"
                        data-name="Path 91"
                        d="M265.7,219.579q0-.1-.007-.193l-.194.006q0,.1.007.194Z"
                        transform="translate(-248.359 -205.219)"
                        fill="#fff"
                      />
                      <path
                        id="Path_92"
                        data-name="Path 92"
                        d="M266.9,243.451l.192-.023q-.011-.094-.021-.191l-.193.02q.01.1.022.194"
                        transform="translate(-249.643 -227.53)"
                        fill="#fff"
                      />
                      <path
                        id="Path_93"
                        data-name="Path 93"
                        d="M267.641,249.35l.191-.034q-.016-.092-.03-.188l-.192.028q.014.1.031.194"
                        transform="translate(-250.329 -233.041)"
                        fill="#fff"
                      />
                      <path
                        id="Path_94"
                        data-name="Path 94"
                        d="M266.374,237.512l.193-.016q-.008-.095-.015-.192l-.193.014q.007.1.015.194"
                        transform="translate(-249.159 -221.98)"
                        fill="#fff"
                      />
                      <path
                        id="Path_95"
                        data-name="Path 95"
                        d="M268.724,255.165l.187-.05c-.015-.057-.03-.119-.044-.184l-.189.041c.015.068.03.132.046.193"
                        transform="translate(-251.328 -238.469)"
                        fill="#fff"
                      />
                      <path
                        id="Path_96"
                        data-name="Path 96"
                        d="M270.249,260.624l-.01.006.093.17a.773.773,0,0,0,.093-.059l.058-.044-.026-.068q-.016-.042-.032-.087l-.183.062.007.021"
                        transform="translate(-252.789 -243.717)"
                        fill="#fff"
                      />
                      <path
                        id="Path_97"
                        data-name="Path 97"
                        d="M183.077,270.237l-.191-.006-.007.194.192.006Z"
                        transform="translate(-171.07 -252.781)"
                        fill="#fff"
                      />
                      <path
                        id="Path_98"
                        data-name="Path 98"
                        d="M230.46,269.348l-.016-.193-.19.015.014.193.192-.015"
                        transform="translate(-215.386 -251.775)"
                        fill="#fff"
                      />
                      <path
                        id="Path_99"
                        data-name="Path 99"
                        d="M224.564,269.79l-.013-.193-.19.012.011.193.192-.012"
                        transform="translate(-209.873 -252.188)"
                        fill="#fff"
                      />
                      <path
                        id="Path_100"
                        data-name="Path 100"
                        d="M236.347,268.8l-.02-.193-.19.019.018.193.191-.019"
                        transform="translate(-220.89 -251.261)"
                        fill="#fff"
                      />
                      <path
                        id="Path_101"
                        data-name="Path 101"
                        d="M206.831,270.574l0-.194-.191,0,0,.194.192,0"
                        transform="translate(-193.293 -252.921)"
                        fill="#fff"
                      />
                      <path
                        id="Path_102"
                        data-name="Path 102"
                        d="M218.658,270.138l-.01-.193-.191.009.008.193.192-.009"
                        transform="translate(-204.351 -252.514)"
                        fill="#fff"
                      />
                      <path
                        id="Path_103"
                        data-name="Path 103"
                        d="M200.917,270.673l0-.194h-.191v.194h.192"
                        transform="translate(-187.762 -253.013)"
                        fill="#fff"
                      />
                      <path
                        id="Path_104"
                        data-name="Path 104"
                        d="M242.22,268.131l-.024-.192-.189.023.022.192.191-.023"
                        transform="translate(-226.38 -250.637)"
                        fill="#fff"
                      />
                      <path
                        id="Path_105"
                        data-name="Path 105"
                        d="M265.018,263.127l.058.185c.068-.021.13-.043.187-.065l-.07-.18c-.052.021-.111.041-.174.061"
                        transform="translate(-247.905 -246.079)"
                        fill="#fff"
                      />
                      <path
                        id="Path_106"
                        data-name="Path 106"
                        d="M259.635,264.993l-.049-.187c-.056.015-.117.03-.183.045l.043.189c.068-.016.131-.031.189-.046"
                        transform="translate(-242.652 -247.706)"
                        fill="#fff"
                      />
                      <path
                        id="Path_107"
                        data-name="Path 107"
                        d="M253.884,266.293l-.038-.19-.186.035.033.191.19-.036"
                        transform="translate(-237.28 -248.92)"
                        fill="#fff"
                      />
                      <path
                        id="Path_108"
                        data-name="Path 108"
                        d="M248.068,267.311l-.03-.191-.188.028.027.192.191-.028"
                        transform="translate(-231.845 -249.871)"
                        fill="#fff"
                      />
                      <path
                        id="Path_109"
                        data-name="Path 109"
                        d="M212.747,270.4l-.007-.194-.191.006.006.194.192-.006"
                        transform="translate(-198.824 -252.755)"
                        fill="#fff"
                      />
                      <path
                        id="Path_110"
                        data-name="Path 110"
                        d="M153.375,268.1l-.189-.022-.024.192.192.023Z"
                        transform="translate(-143.272 -250.765)"
                        fill="#fff"
                      />
                      <path
                        id="Path_111"
                        data-name="Path 111"
                        d="M165.243,269.263l-.19-.014-.015.193.192.014Z"
                        transform="translate(-154.38 -251.863)"
                        fill="#fff"
                      />
                      <path
                        id="Path_112"
                        data-name="Path 112"
                        d="M159.3,268.746l-.19-.018-.019.193.192.018Z"
                        transform="translate(-148.823 -251.375)"
                        fill="#fff"
                      />
                      <path
                        id="Path_113"
                        data-name="Path 113"
                        d="M141.528,266.171q-.1-.019-.183-.039l-.045.188q.088.021.191.041Z"
                        transform="translate(-132.176 -248.947)"
                        fill="#fff"
                      />
                      <path
                        id="Path_114"
                        data-name="Path 114"
                        d="M147.448,267.275l-.187-.028-.031.191.191.029Z"
                        transform="translate(-137.722 -249.99)"
                        fill="#fff"
                      />
                      <path
                        id="Path_115"
                        data-name="Path 115"
                        d="M177.131,270l-.191-.009-.009.194.192.009Z"
                        transform="translate(-165.506 -252.554)"
                        fill="#fff"
                      />
                      <path
                        id="Path_116"
                        data-name="Path 116"
                        d="M194.976,270.485h-.191l0,.194h.192Z"
                        transform="translate(-182.205 -253.018)"
                        fill="#fff"
                      />
                      <path
                        id="Path_117"
                        data-name="Path 117"
                        d="M171.184,269.676l-.191-.011-.012.193.192.011Z"
                        transform="translate(-159.94 -252.252)"
                        fill="#fff"
                      />
                      <path
                        id="Path_118"
                        data-name="Path 118"
                        d="M189.024,270.4l-.191,0,0,.194.192,0Z"
                        transform="translate(-176.636 -252.935)"
                        fill="#fff"
                      />
                      <path
                        id="Path_119"
                        data-name="Path 119"
                        d="M135.9,264.638l-.192-.024q-.006.046-.014.09l-.014.077.072.03c.029.012.062.024.1.036l.06-.184-.012,0,0-.021"
                        transform="translate(-126.92 -247.527)"
                        fill="#fff"
                      />
                      <path
                        id="Path_120"
                        data-name="Path 120"
                        d="M133.809,241.737,134,241.7q-.02-.091-.043-.184l-.188.046q.022.091.042.18"
                        transform="translate(-125.129 -225.916)"
                        fill="#fff"
                      />
                      <path
                        id="Path_121"
                        data-name="Path 121"
                        d="M128.878,224.748l-.182.066q.032.088.062.175l.183-.063q-.031-.089-.063-.178"
                        transform="translate(-120.386 -210.235)"
                        fill="#fff"
                      />
                      <path
                        id="Path_122"
                        data-name="Path 122"
                        d="M136.345,259.07q0,.049,0,.1l.194.007q0-.051,0-.1t0-.09l-.194.005q0,.043,0,.084"
                        transform="translate(-127.539 -242.258)"
                        fill="#fff"
                      />
                      <path
                        id="Path_123"
                        data-name="Path 123"
                        d="M135.029,247.461l.191-.031q-.015-.092-.033-.187l-.19.037q.018.092.032.181"
                        transform="translate(-126.28 -231.278)"
                        fill="#fff"
                      />
                      <path
                        id="Path_124"
                        data-name="Path 124"
                        d="M135.92,253.27l.193-.016q-.008-.093-.02-.19l-.192.024q.012.093.019.182"
                        transform="translate(-127.125 -236.723)"
                        fill="#fff"
                      />
                      <path
                        id="Path_125"
                        data-name="Path 125"
                        d="M126.831,219.3l-.18.072q.034.086.067.173l.181-.069q-.033-.088-.068-.175"
                        transform="translate(-118.473 -205.136)"
                        fill="#fff"
                      />
                      <path
                        id="Path_126"
                        data-name="Path 126"
                        d="M117.149,198.119l-.171.091q.044.081.086.164l.172-.089q-.044-.084-.088-.167"
                        transform="translate(-109.424 -185.326)"
                        fill="#fff"
                      />
                      <path
                        id="Path_127"
                        data-name="Path 127"
                        d="M130.761,230.269l-.184.061q.029.089.056.177l.185-.057q-.028-.09-.057-.18"
                        transform="translate(-122.145 -215.4)"
                        fill="#fff"
                      />
                      <path
                        id="Path_128"
                        data-name="Path 128"
                        d="M124.632,213.908l-.178.077q.037.085.072.171l.179-.074q-.036-.087-.073-.174"
                        transform="translate(-116.418 -200.095)"
                        fill="#fff"
                      />
                      <path
                        id="Path_129"
                        data-name="Path 129"
                        d="M119.788,203.307l-.173.087q.041.083.082.167l.175-.084q-.041-.085-.083-.169"
                        transform="translate(-111.891 -190.179)"
                        fill="#fff"
                      />
                      <path
                        id="Path_130"
                        data-name="Path 130"
                        d="M122.283,208.575l-.176.081q.039.084.077.169l.177-.079q-.039-.086-.078-.172"
                        transform="translate(-114.222 -195.107)"
                        fill="#fff"
                      />
                      <path
                        id="Path_131"
                        data-name="Path 131"
                        d="M111.39,188l-.164.1q.049.077.1.158l.166-.1q-.049-.082-.1-.161"
                        transform="translate(-104.044 -175.86)"
                        fill="#fff"
                      />
                      <path
                        id="Path_132"
                        data-name="Path 132"
                        d="M114.353,193.013l-.168.1q.046.08.091.161l.169-.094q-.046-.083-.093-.164"
                        transform="translate(-106.812 -180.549)"
                        fill="#fff"
                      />
                      <path
                        id="Path_133"
                        data-name="Path 133"
                        d="M132.328,236.087l.187-.05q-.024-.09-.051-.182l-.186.054q.026.09.05.178"
                        transform="translate(-123.736 -220.625)"
                        fill="#fff"
                      />
                      <path
                        id="Path_134"
                        data-name="Path 134"
                        d="M109.029,184.294l-.16.109.053.08.162-.106-.055-.082"
                        transform="translate(-101.839 -172.393)"
                        fill="#fff"
                      />
                      <path
                        id="Path_135"
                        data-name="Path 135"
                        d="M120.713,74.895a15.085,15.085,0,0,0-1.911.46,13.276,13.276,0,0,1,1.093,2.306,7.327,7.327,0,0,1,.525,2.491,13.079,13.079,0,0,0,2.231.24,28.111,28.111,0,0,0,4.029-.11h0a7.456,7.456,0,0,0,1.558-.3,14.646,14.646,0,0,1-.265-2.943c-.016-.541-.038-1.283-.1-1.752q-.1.018-.2.029h0a3.923,3.923,0,0,1-.583.018l.421,1.361a.936.936,0,1,1-1.789.553l-.937-3.031-2.746-.6a.934.934,0,0,1-.345-.154h-.315l-1.235-5.716-.779.168,1.344,6.222v.759Z"
                        transform="translate(-111.131 -63.37)"
                        fill="#fff"
                      />
                      <path
                        id="Path_136"
                        data-name="Path 136"
                        d="M185.047,67.149a5.359,5.359,0,0,1-.067.585.551.551,0,0,1,.219-.045.567.567,0,0,1,.552.435L186,69.157l.014-.039c.488-.081.512-.688.348-1a1.147,1.147,0,0,0-.382-.262,1.2,1.2,0,0,1-.327-.73,1.526,1.526,0,0,1-.584-.222c-.008.08-.015.164-.021.249"
                        transform="translate(-173.035 -62.58)"
                        fill="#fff"
                      />
                      <path
                        id="Path_137"
                        data-name="Path 137"
                        d="M160.459,94.522a.676.676,0,0,0,.431.306l.08.018a2.194,2.194,0,0,0,.508.112l2.305.508.981,3.174a.678.678,0,1,0,1.3-.4l-1.1-3.552a.678.678,0,0,0-.5-.462l-1.993-.439c0-.083,0-.171.007-.263q.005-.113.015-.235l-.1-.046a.572.572,0,0,1-.32-.385l-.522-2.165-.019.02a1.322,1.322,0,0,1-.544.338,3.932,3.932,0,0,1-.552,2.381l-.018.038a.9.9,0,0,0,.047,1.052"
                        transform="translate(-149.922 -84.836)"
                        fill="#fff"
                      />
                      <path
                        id="Path_138"
                        data-name="Path 138"
                        d="M185.038,85.448a.42.42,0,0,0,.172-.8l-2.007-.9-.484-2.011a.419.419,0,0,0-.675-.225,1.35,1.35,0,0,1-.152.347.415.415,0,0,0,.011.076l.533,2.212a.42.42,0,0,0,.236.285l2.2.985a.419.419,0,0,0,.172.037"
                        transform="translate(-170.146 -76.155)"
                        fill="#fff"
                      />
                      <path
                        id="Path_139"
                        data-name="Path 139"
                        d="M148.659,4.683c-.006,1.083-.376,1.244-.669,1.223s.406.557,1.109-.135c.371-.365.332-1.048.4-1.55a1.538,1.538,0,0,1-.552-.942l-.331-.22.343-.518.36-.033a2.094,2.094,0,0,1,.587-.168,1.44,1.44,0,0,1,.384-.088,1.183,1.183,0,0,1,.539.062,1.183,1.183,0,0,1,.518-.16c.316-.029.694.028.718.287a.683.683,0,0,1-.1.416l.006.016c.988-.467,1.6-1.019,1.484-1.419s-.987-.551-2.131-.4c-.238-.45-1.085-1.222-1.75-1.03s-.918,1.281-.87,1.786c-1.051.478-1.711,1.054-1.592,1.469.1.347.723.5,1.593.448l.179-.013a1.848,1.848,0,0,0-.225.962"
                        transform="translate(-137.6 -0.001)"
                        fill="#fff"
                      />
                      <path
                        id="Path_140"
                        data-name="Path 140"
                        d="M179.06,46.072a1.388,1.388,0,0,0,1.388-1.388c0-.006,0-.012,0-.017a1.435,1.435,0,0,0-1.464.283.687.687,0,0,1-.7-.414l-.5.045-.109.164a1.387,1.387,0,0,0,1.385,1.328m1.006-1a.709.709,0,0,1-1.269.211,2.079,2.079,0,0,0,1.269-.211"
                        transform="translate(-166.202 -41.659)"
                        fill="#fff"
                      />
                      <path
                        id="Path_141"
                        data-name="Path 141"
                        d="M173.969,35.525a1.853,1.853,0,0,1,1.664.324.575.575,0,0,0,.519-.626c-.026-.279-.92-.229-1.11,0a1.036,1.036,0,0,0-1.076.127l-.741.067-.25.377.142.094.205-.309Z"
                        transform="translate(-161.805 -32.771)"
                        fill="#fff"
                      />
                      <path
                        id="Path_142"
                        data-name="Path 142"
                        d="M291.129,103.518a.517.517,0,1,0-.972.351l.828,2.292a.517.517,0,0,0,.107.175,3.586,3.586,0,0,1,1.185-.524l.063-.014-.458-.2Z"
                        transform="translate(-271.392 -96.514)"
                        fill="#fff"
                      />
                      <path
                        id="Path_143"
                        data-name="Path 143"
                        d="M310.579,69.47a1.453,1.453,0,0,0,1.811-1.711c-.885.216-1.987.426-2.851.557a1.453,1.453,0,0,0,1.04,1.154"
                        transform="translate(-289.551 -63.384)"
                        fill="#fff"
                      />
                      <path
                        id="Path_144"
                        data-name="Path 144"
                        d="M291.982,38.252c-.043-.214-.659-.286-1.539-.214a1.461,1.461,0,0,0-2.859.567c-.84.27-1.383.572-1.341.786.063.319,5.8-.82,5.738-1.139"
                        transform="translate(-267.757 -34.572)"
                        fill="#fff"
                      />
                    </g>
                  </svg>