<svg xmlns="http://www.w3.org/2000/svg" width="1335" height="143" viewBox="0 0 1335 143">
  <g id="Group_14" data-name="Group 14" transform="translate(27 -1229)">
    <path id="Union_7" data-name="Union 7" d="M1240.359,111.215a71.526,71.526,0,0,1-127.416-17.4c0,.112,0,.222,0,.334a48.861,48.861,0,0,1-94.64,17.066,71.526,71.526,0,0,1-127.417-17.4c0,.112,0,.222,0,.334a48.861,48.861,0,0,1-94.64,17.066A71.527,71.527,0,0,1,669.677,96.243a48.862,48.862,0,0,1-94.6,14.972,71.526,71.526,0,0,1-127.416-17.4c0,.112,0,.222,0,.334a48.861,48.861,0,0,1-94.641,17.066,71.525,71.525,0,0,1-127.416-17.4c0,.112,0,.222,0,.334a48.861,48.861,0,0,1-94.64,17.066,71.5,71.5,0,1,1,11.079-51.442,48.866,48.866,0,0,1,80.162,16.435q-.152-2.333-.153-4.708A71.508,71.508,0,0,1,364.1,59.773a48.866,48.866,0,0,1,80.162,16.435q-.152-2.333-.153-4.708A71.508,71.508,0,0,1,586.159,59.773a48.866,48.866,0,0,1,79.159,14.079c-.025-.782-.038-1.564-.038-2.352A71.508,71.508,0,0,1,807.326,59.773a48.866,48.866,0,0,1,80.162,16.435q-.152-2.333-.153-4.708a71.508,71.508,0,0,1,142.047-11.727,48.866,48.866,0,0,1,80.161,16.435q-.152-2.333-.153-4.708a71.508,71.508,0,0,1,142.046-11.727,48.843,48.843,0,1,1-11.079,51.442Z" transform="translate(-27 1229)" fill="#dbf8ff"/>
    <path id="Union_14" data-name="Union 14" d="M1214.344,98.772C1201.787,115.794,1180.4,127,1156.125,127c-31.032,0-57.348-18.316-66.525-43.682,0,.1,0,.2,0,.3,0,23.961-21.413,43.385-47.828,43.385-20.538,0-38.052-11.741-44.828-28.229C984.389,115.794,963,127,938.727,127c-31.032,0-57.348-18.316-66.525-43.682,0,.1,0,.2,0,.3C872.2,107.576,850.79,127,824.375,127c-20.538,0-38.052-11.741-44.828-28.229C766.99,115.794,745.6,127,721.328,127c-30.145,0-55.84-17.286-65.7-41.525C654.557,108.573,633.574,127,607.847,127c-20.539,0-38.052-11.741-44.828-28.229C550.461,115.794,529.074,127,504.8,127c-31.032,0-57.348-18.316-66.525-43.682,0,.1,0,.2,0,.3,0,23.961-21.413,43.385-47.828,43.385-20.539,0-38.052-11.741-44.829-28.229C333.063,115.794,311.675,127,287.4,127c-31.032,0-57.348-18.316-66.525-43.682,0,.1,0,.2,0,.3,0,23.961-21.413,43.385-47.828,43.385-20.538,0-38.052-11.741-44.828-28.229C115.664,115.794,94.276,127,70,127,31.341,127,0,98.57,0,63.5S31.341,0,70,0c34.751,0,63.588,22.97,69.066,53.085A50.221,50.221,0,0,1,173.049,40.23c20.212,0,37.5,11.375,44.5,27.451q-.148-2.072-.149-4.182c0-35.07,31.341-63.5,70-63.5,34.751,0,63.588,22.97,69.065,53.085A50.225,50.225,0,0,1,390.448,40.23c20.212,0,37.5,11.375,44.5,27.451q-.148-2.072-.149-4.182c0-35.07,31.341-63.5,70-63.5,34.751,0,63.588,22.97,69.065,53.085A50.225,50.225,0,0,1,607.847,40.23c19.324,0,35.972,10.4,43.516,25.359-.025-.694-.037-1.389-.037-2.089,0-35.07,31.341-63.5,70-63.5,34.751,0,63.588,22.97,69.066,53.085A50.224,50.224,0,0,1,824.375,40.23c20.213,0,37.5,11.375,44.5,27.451q-.148-2.072-.149-4.182c0-35.07,31.341-63.5,70-63.5,34.751,0,63.588,22.97,69.066,53.085a50.221,50.221,0,0,1,33.981-12.855c20.212,0,37.5,11.375,44.5,27.451q-.148-2.072-.15-4.182c0-35.07,31.341-63.5,70-63.5,34.751,0,63.588,22.97,69.065,53.085a50.225,50.225,0,0,1,33.982-12.855c26.415,0,47.828,19.424,47.828,43.385S1285.587,127,1259.172,127C1238.634,127,1221.121,115.259,1214.344,98.772Z" transform="translate(0 1245)" fill="#fff"/>
  </g>
</svg>
    