<svg id="Group_11" data-name="Group 11" xmlns="http://www.w3.org/2000/svg" xmlns:xlink="http://www.w3.org/1999/xlink" width="76.72" height="67.559" viewBox="0 0 76.72 67.559">
  <defs>
    <clipPath id="clip-path">
      <rect id="Rectangle_1231" data-name="Rectangle 1231" width="76.72" height="67.559" fill="none"/>
    </clipPath>
  </defs>
  <g id="Group_9" data-name="Group 9" clip-path="url(#clip-path)">
    <path id="Path_13" data-name="Path 13" d="M.817,135.95l.056,0a.872.872,0,0,0,.87-.818c.69-10.946,4.006-17.807,6.743-21.692a13.147,13.147,0,0,0-.141,1.515,30.9,30.9,0,0,0,.74,6.54c-.008.027-.017.053-.024.081-.171.7-4.181,17.143-4.6,22.243a1.6,1.6,0,0,0,1.594,1.73h6.966a1.6,1.6,0,0,0,1.439-2.3l-.582-1.2a1.6,1.6,0,0,0-.682-.71l-2.195-1.179,0-.021,2.559-6.718a19.655,19.655,0,0,1,6.112-2.4c1.465,5.033,2.821,10.5,2.634,12.79a1.6,1.6,0,0,0,1.594,1.73h6.966a1.6,1.6,0,0,0,1.439-2.3l-.582-1.2a1.6,1.6,0,0,0-.682-.71l-2.558-1.374-1.769-8.635c-.006-.027-.012-.054-.019-.081a5.9,5.9,0,0,1-.154-1.068q1.143-.046,2.335-.047a44.689,44.689,0,0,0,6.937-.571l.658,12.452-.582,1.163a1.6,1.6,0,0,0,1.431,2.315h5.8a1.6,1.6,0,0,0,1.439-2.3l-.308-.635a1.6,1.6,0,0,0-1.169-.878l-1.582-.271L44,127.91a13.216,13.216,0,0,1,1.912-.25l.216-.006,4.754,14.575-.477.954a1.6,1.6,0,0,0,1.431,2.315h5.02a1.6,1.6,0,0,0,1.439-2.3l-.308-.635A1.6,1.6,0,0,0,56.9,141.7l-1.312-.3-2.23-17.159a7.439,7.439,0,0,0,.337-1.815,10.983,10.983,0,0,0,1.946-.24,18.416,18.416,0,0,0,3.787,1.023,10.582,10.582,0,0,0,2.456,2.717,12.884,12.884,0,0,0,4.3,2.179c.123.537.23,1.073.314,1.6.066.426.118.849.152,1.266.013.206.027.414.031.615a2.724,2.724,0,0,1-.015.364c-.008.132-.016.264-.021.395a20.1,20.1,0,0,0,.118,3.1,19.379,19.379,0,0,0,.59,3.049,14.02,14.02,0,0,0,.519,1.518,9.548,9.548,0,0,0,.776,1.519,5.544,5.544,0,0,0,1.319,1.467,3.764,3.764,0,0,0,1.06.559,3.368,3.368,0,0,0,1.277.165,1.5,1.5,0,0,0,.059-2.992l-.226-.023a.328.328,0,0,1-.121-.031.812.812,0,0,1-.183-.119,2.611,2.611,0,0,1-.529-.673,8.484,8.484,0,0,1-.828-2.216,16.959,16.959,0,0,1-.4-5.122l.029-.314c.012-.105.019-.2.046-.344.048-.27.082-.536.117-.8.061-.531.1-1.056.117-1.576.008-.231.012-.461.014-.69q.662.039,1.374.04a28.942,28.942,0,0,0,4.084-.305,1.3,1.3,0,0,0,.787-.314.334.334,0,0,0,.063-.26c-.073-.4-.7-.369-.873-.35a21.939,21.939,0,0,1-5.463-.363q-.018-.416-.045-.83c-.067-1.011-.174-2.01-.31-3q-.1-.746-.228-1.49c-.031-.182-.064-.364-.1-.547a34.114,34.114,0,0,0-1.666-10.558c-.951-2.619-4.14-4.673-5-6.059a6.735,6.735,0,0,0-4.5-3.028,25.673,25.673,0,0,0-3.495-1.635c-11.924-4.451-16.366,6.278-11.832,15.233,2.338,4.616,5.433,6.346,8.075,6.877l-.081.475a10.311,10.311,0,0,1-1.6-.373c-3.013-.963-5.453-3.253-7.253-6.808-2.044-4.036-2.349-8.639-.8-12.013A8.563,8.563,0,0,1,43.293,101l-.315-.11c.082-.291.176-.58.277-.868s.206-.562.319-.839l-1.63-4.513a1.5,1.5,0,1,1,2.817-1.017L46.406,98.2l1.349.584q.369-.059.751-.09l-.944-1.165-1.77-5.076a1.158,1.158,0,0,0-.222-.382,1.608,1.608,0,0,0-.522-.479,3.329,3.329,0,0,0-4.306,1.384,15.806,15.806,0,0,0-2.48,5.149,23.662,23.662,0,0,0-.493,2.4,2.742,2.742,0,0,0,1.3,2.887c.969,1.816.21,9.815,1.377,12.531,1.38,3.212-22.194,3.042-21.407.907.719-1.95-1.372-7.981-3.8-11.533q-.582.244-1.124.523a.867.867,0,0,0-.363.1,20.868,20.868,0,0,0-6.417,6.114C4.394,116.087.738,123.343,0,135.024a.873.873,0,0,0,.816.926m75.29-7.879a2.054,2.054,0,0,1-.3.061c-7.277,1.038-11.428-.8-13.629-2.525a9.394,9.394,0,0,1-3.041-3.957,2.529,2.529,0,0,1,1.387-1.153c.918-.4,1.35-.261,1.483-.191a8,8,0,0,0,2.017,4.094c1.669,1.856,5.077,4,11.851,3.675a1.489,1.489,0,0,1,.233,0M61.8,112.013a1.164,1.164,0,1,1-1.1,1.552q-.022-.253-.061-.511a1.164,1.164,0,0,1,1.157-1.041" transform="translate(0 -77.991)"/>
    <path id="Path_14" data-name="Path 14" d="M263.01,178.654l-.415.136c.019.057.036.121.053.192l.424-.1c-.019-.084-.041-.16-.063-.228" transform="translate(-224.409 -152.675)"/>
    <path id="Path_15" data-name="Path 15" d="M264.608,189.335l-.435.039c.012.139.024.284.035.431l.435-.032c-.011-.15-.023-.3-.035-.438" transform="translate(-225.758 -161.802)"/>
    <path id="Path_16" data-name="Path 16" d="M263.923,183.279l-.431.066c.02.131.039.274.056.424l.433-.049c-.018-.157-.037-.3-.058-.441" transform="translate(-225.176 -156.627)"/>
    <path id="Path_17" data-name="Path 17" d="M265.363,201.816c-.006-.145-.011-.291-.018-.437l-.436.019c.006.145.012.291.018.435Z" transform="translate(-226.387 -172.095)"/>
    <path id="Path_18" data-name="Path 18" d="M265.042,195.363l-.435.026c.008.143.016.288.024.433l.436-.022c-.007-.147-.015-.293-.024-.437" transform="translate(-226.129 -166.954)"/>
    <path id="Path_19" data-name="Path 19" d="M266.449,231.78q-.013-.215-.024-.434l-.436.023q.012.22.025.437Z" transform="translate(-227.31 -197.704)"/>
    <path id="Path_20" data-name="Path 20" d="M265.149,207.839l.436-.014-.014-.437-.436.015Z" transform="translate(-226.58 -177.231)"/>
    <path id="Path_21" data-name="Path 21" d="M266.169,225.806q-.01-.216-.018-.435l-.436.017q.008.22.018.437Z" transform="translate(-227.075 -192.599)"/>
    <rect id="Rectangle_1230" data-name="Rectangle 1230" width="0.436" height="0.436" transform="translate(38.582 31.044) rotate(-1.718)"/>
    <path id="Path_22" data-name="Path 22" d="M265.955,219.821q-.008-.217-.015-.435l-.436.014q.007.219.015.437Z" transform="translate(-226.895 -187.484)"/>
    <path id="Path_23" data-name="Path 23" d="M266.925,243.719l.433-.052q-.025-.211-.048-.429l-.434.044q.022.222.049.438" transform="translate(-228.068 -207.866)"/>
    <path id="Path_24" data-name="Path 24" d="M267.68,249.628l.43-.076q-.037-.207-.068-.424l-.432.063q.033.224.07.437" transform="translate(-228.695 -212.9)"/>
    <path id="Path_25" data-name="Path 25" d="M266.393,237.773l.435-.037q-.018-.213-.034-.432l-.435.031q.016.221.034.438" transform="translate(-227.626 -202.796)"/>
    <path id="Path_26" data-name="Path 26" d="M268.783,255.458l.421-.113c-.035-.129-.068-.268-.1-.414l-.426.092c.033.152.068.3.1.435" transform="translate(-229.608 -217.86)"/>
    <path id="Path_27" data-name="Path 27" d="M270.263,260.728l-.024.013.21.382a1.729,1.729,0,0,0,.21-.134l.131-.1-.059-.153q-.037-.1-.071-.2l-.413.14.016.046" transform="translate(-230.942 -222.654)"/>
    <path id="Path_28" data-name="Path 28" d="M183.324,270.244l-.43-.013-.015.436.433.014Z" transform="translate(-156.285 -230.935)"/>
    <path id="Path_29" data-name="Path 29" d="M230.718,269.59l-.037-.435-.428.034.033.435.432-.034" transform="translate(-196.771 -230.015)"/>
    <path id="Path_30" data-name="Path 30" d="M224.819,270.032l-.029-.435-.429.027.025.436.432-.027" transform="translate(-191.735 -230.393)"/>
    <path id="Path_31" data-name="Path 31" d="M236.61,269.04l-.045-.434-.427.042.041.434.431-.042" transform="translate(-201.799 -229.546)"/>
    <path id="Path_32" data-name="Path 32" d="M207.076,270.816l-.01-.436-.43.009.007.436.433-.009" transform="translate(-176.588 -231.062)"/>
    <path id="Path_33" data-name="Path 33" d="M218.909,270.381l-.022-.436-.429.02.019.436.432-.021" transform="translate(-186.69 -230.69)"/>
    <path id="Path_34" data-name="Path 34" d="M201.158,270.915l0-.436-.43,0v.436l.433,0" transform="translate(-171.535 -231.147)"/>
    <path id="Path_35" data-name="Path 35" d="M242.487,268.372l-.055-.433q-.206.026-.425.051l.049.434.431-.051" transform="translate(-206.815 -228.976)"/>
    <path id="Path_36" data-name="Path 36" d="M265.018,263.2l.131.416c.152-.048.294-.1.421-.147l-.159-.406c-.118.046-.25.092-.393.137" transform="translate(-226.48 -224.812)"/>
    <path id="Path_37" data-name="Path 37" d="M259.926,265.228l-.111-.422c-.126.033-.263.067-.412.1l.1.425q.231-.052.426-.1" transform="translate(-221.681 -226.299)"/>
    <path id="Path_38" data-name="Path 38" d="M254.164,266.531l-.085-.428q-.2.039-.419.078l.075.43q.226-.04.429-.08" transform="translate(-216.773 -227.407)"/>
    <path id="Path_39" data-name="Path 39" d="M248.341,267.551l-.067-.431q-.2.032-.423.063l.06.432q.224-.031.43-.064" transform="translate(-211.808 -228.276)"/>
    <path id="Path_40" data-name="Path 40" d="M212.995,270.639l-.016-.436-.43.014.013.436.433-.014" transform="translate(-181.641 -230.911)"/>
    <path id="Path_41" data-name="Path 41" d="M153.642,268.126l-.426-.05-.054.433q.209.026.431.051Z" transform="translate(-130.89 -229.093)"/>
    <path id="Path_42" data-name="Path 42" d="M165.5,269.281l-.428-.032-.034.435.432.032Z" transform="translate(-141.038 -230.096)"/>
    <path id="Path_43" data-name="Path 43" d="M159.566,268.768l-.427-.04-.043.434.432.04Z" transform="translate(-135.961 -229.65)"/>
    <path id="Path_44" data-name="Path 44" d="M141.814,266.22q-.223-.043-.413-.088l-.1.424q.2.047.431.092Z" transform="translate(-120.753 -227.432)"/>
    <path id="Path_45" data-name="Path 45" d="M147.721,267.311q-.221-.031-.422-.064l-.07.431q.206.034.431.066Z" transform="translate(-125.819 -228.385)"/>
    <path id="Path_46" data-name="Path 46" d="M177.381,270.007l-.43-.019-.021.436.432.019Z" transform="translate(-151.202 -230.727)"/>
    <path id="Path_47" data-name="Path 47" d="M195.217,270.486l-.43,0,0,.436.433,0Z" transform="translate(-166.458 -231.151)"/>
    <path id="Path_48" data-name="Path 48" d="M171.437,269.69l-.429-.025-.027.435.432.025Z" transform="translate(-146.117 -230.451)"/>
    <path id="Path_49" data-name="Path 49" d="M189.268,270.4l-.43-.008-.009.436.433.008Z" transform="translate(-161.37 -231.075)"/>
    <path id="Path_50" data-name="Path 50" d="M136.178,264.669l-.433-.055q-.013.1-.032.2l-.032.173.162.068c.065.027.139.055.222.082l.135-.415-.028-.009.006-.046" transform="translate(-115.951 -226.135)"/>
    <path id="Path_51" data-name="Path 51" d="M133.862,242.02l.426-.094q-.045-.205-.1-.415l-.423.1q.05.2.095.405" transform="translate(-114.315 -206.391)"/>
    <path id="Path_52" data-name="Path 52" d="M129.106,224.748l-.41.15q.072.2.14.394l.412-.143q-.069-.2-.142-.4" transform="translate(-109.981 -192.066)"/>
    <path id="Path_53" data-name="Path 53" d="M136.347,259.183q0,.111,0,.217l.436.017q0-.115,0-.234,0-.1,0-.2l-.436.012q0,.1,0,.189" transform="translate(-116.516 -221.321)"/>
    <path id="Path_54" data-name="Path 54" d="M135.07,247.734l.431-.07q-.033-.207-.075-.421l-.428.083q.04.207.073.408" transform="translate(-115.366 -211.29)"/>
    <path id="Path_55" data-name="Path 55" d="M135.943,253.528l.435-.035q-.017-.209-.044-.428l-.433.054c.017.14.032.276.042.41" transform="translate(-116.139 -216.264)"/>
    <path id="Path_56" data-name="Path 56" d="M127.056,219.3l-.405.161q.077.195.151.389l.408-.155q-.075-.2-.154-.395" transform="translate(-108.234 -187.407)"/>
    <path id="Path_57" data-name="Path 57" d="M117.363,198.119l-.385.206q.1.183.194.37l.388-.2q-.1-.19-.2-.376" transform="translate(-99.967 -169.309)"/>
    <path id="Path_58" data-name="Path 58" d="M130.991,230.269l-.414.136q.066.2.127.4l.417-.129q-.063-.2-.129-.4" transform="translate(-111.589 -196.784)"/>
    <path id="Path_59" data-name="Path 59" d="M124.854,213.908l-.4.173q.083.192.162.385l.4-.167q-.081-.2-.165-.391" transform="translate(-106.356 -182.802)"/>
    <path id="Path_60" data-name="Path 60" d="M120.005,203.307l-.39.2q.093.186.184.375l.393-.189q-.092-.192-.187-.382" transform="translate(-102.221 -173.743)"/>
    <path id="Path_61" data-name="Path 61" d="M122.5,208.575l-.4.184q.088.19.173.381l.4-.178q-.087-.194-.176-.387" transform="translate(-104.351 -178.245)"/>
    <path id="Path_62" data-name="Path 62" d="M111.6,188l-.369.232q.11.174.218.355l.374-.225q-.111-.184-.223-.363" transform="translate(-95.052 -160.662)"/>
    <path id="Path_63" data-name="Path 63" d="M114.563,193.013l-.378.218q.1.18.206.364l.381-.212q-.1-.187-.209-.37" transform="translate(-97.581 -164.946)"/>
    <path id="Path_64" data-name="Path 64" d="M132.39,236.378l.421-.113q-.055-.2-.115-.41l-.419.121q.058.2.112.4" transform="translate(-113.043 -201.558)"/>
    <path id="Path_65" data-name="Path 65" d="M109.23,184.294l-.361.245.119.179.365-.24-.123-.184" transform="translate(-93.038 -157.494)"/>
    <path id="Path_66" data-name="Path 66" d="M123.106,83.846a33.972,33.972,0,0,0-4.3,1.036,29.9,29.9,0,0,1,2.462,5.193,16.5,16.5,0,0,1,1.181,5.609,29.451,29.451,0,0,0,5.023.541,63.308,63.308,0,0,0,9.072-.247h0a16.791,16.791,0,0,0,3.509-.669,32.98,32.98,0,0,1-.6-6.628c-.036-1.219-.086-2.888-.215-3.946q-.221.04-.452.065h0a8.832,8.832,0,0,1-1.312.04l.947,3.065a2.109,2.109,0,1,1-4.029,1.246l-2.11-6.825L126.1,80.963a2.1,2.1,0,0,1-.776-.346h-.709l-2.781-12.872-1.755.379,3.027,14.013v1.709Z" transform="translate(-101.526 -57.894)"/>
    <path id="Path_67" data-name="Path 67" d="M185.132,67.46a12.075,12.075,0,0,1-.152,1.316,1.24,1.24,0,0,1,.494-.1,1.276,1.276,0,0,1,1.244.98l.56,2.326.031-.089c1.1-.182,1.153-1.55.783-2.259a2.583,2.583,0,0,0-.86-.59A2.7,2.7,0,0,1,186.5,67.4a3.437,3.437,0,0,1-1.315-.5c-.019.179-.033.368-.048.56" transform="translate(-158.081 -57.172)"/>
    <path id="Path_68" data-name="Path 68" d="M160.694,99.316a1.521,1.521,0,0,0,.97.689l.179.039a4.941,4.941,0,0,0,1.145.252l5.191,1.143,2.21,7.149a1.527,1.527,0,1,0,2.917-.9l-2.472-8a1.526,1.526,0,0,0-1.13-1.04l-4.488-.988c0-.188.007-.386.016-.592q.012-.255.033-.529l-.23-.1a1.288,1.288,0,0,1-.72-.868l-1.175-4.876c-.014.015-.027.031-.042.046a2.977,2.977,0,0,1-1.225.762c.139,1.136.107,2.656-1.243,5.363-.014.029-.027.057-.04.085a2.037,2.037,0,0,0,.106,2.369" transform="translate(-136.965 -77.504)"/>
    <path id="Path_69" data-name="Path 69" d="M188.977,90.5a.945.945,0,0,0,.387-1.808l-4.521-2.028-1.091-4.529a.944.944,0,0,0-1.519-.508,3.038,3.038,0,0,1-.343.78.935.935,0,0,0,.024.17l1.2,4.981a.945.945,0,0,0,.532.641l4.944,2.218a.943.943,0,0,0,.386.083" transform="translate(-155.441 -69.574)"/>
    <path id="Path_70" data-name="Path 70" d="M150.614,10.546c-.014,2.439-.847,2.8-1.506,2.753s.915,1.254,2.5-.3c.835-.822.749-2.36.891-3.491a3.463,3.463,0,0,1-1.244-2.12l-.746-.495.773-1.166.81-.073a4.716,4.716,0,0,1,1.321-.378,3.243,3.243,0,0,1,.864-.2,2.664,2.664,0,0,1,1.214.139,2.663,2.663,0,0,1,1.167-.36c.712-.066,1.562.064,1.616.646a1.54,1.54,0,0,1-.214.936c0,.012.009.024.013.036,2.225-1.053,3.6-2.295,3.343-3.2-.269-.934-2.222-1.241-4.8-.89-.536-1.014-2.443-2.751-3.94-2.319s-2.068,2.885-1.96,4.022c-2.366,1.076-3.853,2.375-3.584,3.308.225.781,1.628,1.123,3.588,1.009.132-.008.266-.017.4-.029a4.161,4.161,0,0,0-.506,2.167" transform="translate(-125.708 0)"/>
    <path id="Path_71" data-name="Path 71" d="M180.795,48a3.126,3.126,0,0,0,3.126-3.126c0-.013,0-.026,0-.039a1.548,1.548,0,0,1-2.159-.032,1.551,1.551,0,0,1-2.7-.263l-1.135.1-.245.369A3.124,3.124,0,0,0,180.795,48m2.266-2.25c-1.089,2.412-2.857.476-2.857.476a4.681,4.681,0,0,0,2.857-.476" transform="translate(-151.838 -38.059)"/>
    <path id="Path_72" data-name="Path 72" d="M175.214,36.141a1.294,1.294,0,0,0,2.484.049,1.295,1.295,0,0,0,2.432-.728c-.058-.628-2.071-.516-2.5.008a2.334,2.334,0,0,0-2.423.285l-1.669.151-.564.85.32.212.462-.7Z" transform="translate(-147.821 -29.939)"/>
    <path id="Path_73" data-name="Path 73" d="M292.384,103.945a1.163,1.163,0,1,0-2.188.79l1.864,5.161a1.166,1.166,0,0,0,.241.4,8.075,8.075,0,0,1,2.668-1.18c.046-.011.094-.02.141-.031l-1.032-.447Z" transform="translate(-247.937 -88.173)"/>
    <path id="Path_74" data-name="Path 74" d="M311.882,71.612a3.272,3.272,0,0,0,4.079-3.853c-1.993.486-4.474.959-6.421,1.254a3.272,3.272,0,0,0,2.343,2.6" transform="translate(-264.527 -57.906)"/>
    <path id="Path_75" data-name="Path 75" d="M299.169,39.871c-.1-.482-1.484-.643-3.466-.483a3.289,3.289,0,0,0-6.437,1.278c-1.893.609-3.115,1.288-3.019,1.77.142.717,13.065-1.848,12.923-2.565" transform="translate(-244.617 -31.584)"/>
  </g>
</svg>
