<svg id="Group_13" data-name="Group 13" xmlns="http://www.w3.org/2000/svg" xmlns:xlink="http://www.w3.org/1999/xlink" width="110.467" height="48.918" viewBox="0 0 110.467 48.918">
  <defs>
    <clipPath id="clip-path">
      <rect id="Rectangle_1232" data-name="Rectangle 1232" width="110.467" height="48.918" fill="none"/>
    </clipPath>
  </defs>
  <g id="Group_12" data-name="Group 12" clip-path="url(#clip-path)">
    <path id="Path_76" data-name="Path 76" d="M626.484,236.468l.178,4.009-4.093,5.387a1.9,1.9,0,0,0,3.033,2.3l4.509-5.935A1.9,1.9,0,0,0,630.5,241l-.089-2.014-2.846-3.028q-.524.256-1.077.514" transform="translate(-527.397 -200.008)"/>
    <path id="Path_77" data-name="Path 77" d="M663.474,228.672l1.518,7.541a1.9,1.9,0,0,0,1.865,1.529,1.924,1.924,0,0,0,.378-.038,1.9,1.9,0,0,0,1.491-2.243l-1.625-8.074a1.9,1.9,0,0,0-.479-.929l-3.477-3.7c-.985.55-2.158,1.188-3.49,1.848Z" transform="translate(-559.16 -188.824)"/>
    <path id="Path_78" data-name="Path 78" d="M672.628,99.08a3.428,3.428,0,1,0-3.428-3.428,3.427,3.427,0,0,0,3.428,3.428" transform="translate(-567.252 -78.175)"/>
    <path id="Path_79" data-name="Path 79" d="M451.771,248.382l-.237-.025a.343.343,0,0,1-.127-.033.851.851,0,0,1-.192-.125,2.739,2.739,0,0,1-.554-.7,8.883,8.883,0,0,1-.868-2.321,16.792,16.792,0,0,1-.321-1.792,27.623,27.623,0,0,1-3.677-1.843q.036.656.109,1.306a20.312,20.312,0,0,0,.617,3.195,14.739,14.739,0,0,0,.544,1.591,10.019,10.019,0,0,0,.814,1.591,5.8,5.8,0,0,0,1.382,1.537,3.941,3.941,0,0,0,1.11.585,3.531,3.531,0,0,0,1.338.173,1.573,1.573,0,0,0,.062-3.135" transform="translate(-377.881 -204.742)"/>
    <path id="Path_80" data-name="Path 80" d="M82.051,40.041c.572,0,1.151-.016,1.733-.049,9.308-.518,17.338-5.054,21.2-7.234.536-.3,1-.563,1.36-.754l-.73-.367c-.28.154-.6.334-.959.538l-.847.477-.343.191c0-.083-.006-.167-.011-.257a11.949,11.949,0,0,1-.078-2.075l-.5-.251a1.563,1.563,0,0,1-.772-.873l-1.578-4.411a1.569,1.569,0,1,1,2.955-1.057l.609,1.7c.06-.294.117-.577.17-.844.437-1.516-.135-3.331-1.435-3.655a2.74,2.74,0,0,0-1.1-.035,1.2,1.2,0,0,0-.187.019c-.26.049-6.387,1.3-7.879,10.082a1.219,1.219,0,1,0,2.4.408,12.264,12.264,0,0,1,2.084-5.3A17.135,17.135,0,0,0,98,32.193a3.674,3.674,0,0,0,.725,1.677,1.912,1.912,0,0,0,.181.229l.711.757-.331.16-.28-.3.019.422C92.118,38.4,81.753,41.7,71.471,37.277a17.754,17.754,0,0,1,.025-2.211l.03-.329c.012-.11.02-.206.048-.36.05-.283.086-.562.122-.842.064-.556.1-1.106.123-1.651.009-.242.013-.483.015-.723q.694.041,1.44.042a30.341,30.341,0,0,0,4.279-.32,1.36,1.36,0,0,0,.825-.329.35.35,0,0,0,.065-.272c-.076-.42-.729-.386-.914-.367a22.97,22.97,0,0,1-5.723-.38q-.019-.436-.047-.87c-.07-1.059-.182-2.106-.324-3.148q-.107-.782-.239-1.561c-.032-.19-.067-.381-.1-.573a35.737,35.737,0,0,0-1.745-11.061c-1-2.744-4.337-4.9-5.236-6.348A7.056,7.056,0,0,0,59.4,2.8l-.184-.1C44.137-5.566,38.175,6.842,43.343,17.048c2.345,4.631,5.419,6.489,8.105,7.126a10.866,10.866,0,0,1-2.157-.45c-3.156-1.009-5.713-3.408-7.6-7.132-2.052-4.052-2.43-8.648-1.027-12.135a14.2,14.2,0,0,1-4.7.908c-5.272,0-12.426-1.183-17.913.43a18.416,18.416,0,0,0-3.266,1.286.913.913,0,0,0-.38.1,21.863,21.863,0,0,0-6.723,6.4C4.6,17.809.774,25.411,0,37.649a.914.914,0,0,0,.855.97l.058,0a.914.914,0,0,0,.911-.856C2.55,26.3,6.023,19.109,8.891,15.039a13.745,13.745,0,0,0-.147,1.587,32.362,32.362,0,0,0,.776,6.851c-.009.028-.018.056-.025.084-.179.731-4.381,17.96-4.817,23.3a1.676,1.676,0,0,0,1.67,1.812h7.3a1.676,1.676,0,0,0,1.507-2.408l-.61-1.255a1.676,1.676,0,0,0-.714-.744l-2.3-1.235,0-.022,2.681-7.038a20.6,20.6,0,0,1,6.4-2.509c1.535,5.272,2.955,11,2.759,13.4a1.676,1.676,0,0,0,1.67,1.812h7.3a1.676,1.676,0,0,0,1.507-2.408l-.61-1.255a1.676,1.676,0,0,0-.714-.744l-2.68-1.44L28,33.783c-.005-.025-.012-.055-.018-.079a6.314,6.314,0,0,1-.164-1.124q1.2-.049,2.447-.049a46.8,46.8,0,0,0,7.268-.6l.689,13.045L37.608,46.2a1.676,1.676,0,0,0,1.5,2.425h6.075a1.676,1.676,0,0,0,1.508-2.407l-.323-.665a1.676,1.676,0,0,0-1.225-.92l-1.658-.284L46.094,30.2a13.843,13.843,0,0,1,2-.262l.227-.007L53.3,45.2l-.5,1a1.676,1.676,0,0,0,1.5,2.425h5.259a1.676,1.676,0,0,0,1.508-2.407l-.323-.665a1.676,1.676,0,0,0-1.137-.9l-1.375-.311L55.9,26.358a7.161,7.161,0,0,0,.281-1.226q.037-.254.06-.527c6.9,10.25,15.565,15.436,25.811,15.436m-4.243-9.676a2.158,2.158,0,0,1-.315.064c-7.623,1.088-11.973-.839-14.278-2.646a9.841,9.841,0,0,1-3.186-4.145,2.649,2.649,0,0,1,1.453-1.208c.961-.422,1.415-.274,1.554-.2a8.383,8.383,0,0,0,2.113,4.289c1.748,1.945,5.32,4.19,12.416,3.851a1.506,1.506,0,0,1,.244,0M67.745,32.087c.069.446.124.89.159,1.326.014.216.028.433.032.645a2.88,2.88,0,0,1-.016.381c-.009.138-.016.276-.022.414-.008.183-.012.366-.014.548A37.074,37.074,0,0,1,56.914,24.41a19.591,19.591,0,0,0,3.421.867,11.087,11.087,0,0,0,2.573,2.847,13.5,13.5,0,0,0,4.508,2.283c.129.562.241,1.124.329,1.681M62.822,13.541a1.219,1.219,0,1,1-1.148,1.626q-.023-.265-.064-.536a1.219,1.219,0,0,1,1.212-1.09" transform="translate(0 0.001)"/>
    <path id="Path_81" data-name="Path 81" d="M663.913,153.29a1.219,1.219,0,1,0-2.295.821l1.578,4.411a1.218,1.218,0,0,0,.6.678l4.376,2.2.845.425c.027.014.054.024.082.035l.024.01c.13,2.728.5,2.989.862,3,.246.011.815.033,1.219-3.466l0-.018a1.419,1.419,0,0,0-.413-1.321,1.281,1.281,0,0,0-.392-.219,1.215,1.215,0,0,0-.289-.2l-1.443-.726-3.342-1.682Zm6.606,8.2a11.782,11.782,0,0,1-.49,2.466,11.093,11.093,0,0,1-.232-2.025,1.216,1.216,0,0,0,.722-.44" transform="translate(-560.765 -129.252)"/>
  </g>
</svg>
